<?xml version="1.0" standalone="no"?><!DOCTYPE svg PUBLIC "-//W3C//DTD SVG 1.1//EN" "http://www.w3.org/Graphics/SVG/1.1/DTD/svg11.dtd"><svg t="1659270159860" class="icon" viewBox="0 0 1024 1024" version="1.1" xmlns="http://www.w3.org/2000/svg" p-id="4391" width="32" height="32" xmlns:xlink="http://www.w3.org/1999/xlink"><defs><style type="text/css">@font-face { font-family: feedback-iconfont; src: url("//at.alicdn.com/t/font_1031158_u69w8yhxdu.woff2?t=1630033759944") format("woff2"), url("//at.alicdn.com/t/font_1031158_u69w8yhxdu.woff?t=1630033759944") format("woff"), url("//at.alicdn.com/t/font_1031158_u69w8yhxdu.ttf?t=1630033759944") format("truetype"); }
</style></defs><path d="M555.6 512l258-258c12-12 12-31.6 0-43.6s-31.6-12-43.6 0L512 468.4 254 210.8c-12-12-31.6-12-43.6 0s-12 31.6 0 43.6l258 258-258 258c-12 12-12 31.6 0 43.6 6 6 14 9.2 21.6 9.2s15.6-3.2 21.6-9.2l258-258 258 258c6 6 14 9.2 21.6 9.2s15.6-3.2 21.6-9.2c12-12 12-31.6 0-43.6L555.6 512z" fill="#00C1CD" p-id="4392"></path></svg>