<?xml version="1.0" standalone="no"?><!DOCTYPE svg PUBLIC "-//W3C//DTD SVG 1.1//EN" "http://www.w3.org/Graphics/SVG/1.1/DTD/svg11.dtd"><svg t="1664022809349" class="icon" viewBox="0 0 1024 1024" version="1.1" xmlns="http://www.w3.org/2000/svg" p-id="14399" xmlns:xlink="http://www.w3.org/1999/xlink" width="16" height="16"><path d="M706.300776 161.01416c34.018791 0 61.868069 34.232662 61.868069 76.049047L768.168846 786.93577c0 41.859363-27.849278 76.05007-61.868069 76.05007l-30.933523 0c-34.104749 0-61.954027-34.190707-61.954027-76.05007L613.413226 237.063207c0-41.816384 27.849278-76.049047 61.954027-76.049047L706.300776 161.01416z" p-id="14400" fill="#ffffff"></path><path d="M348.717681 161.01416c34.018791 0 61.868069 34.232662 61.868069 76.049047L410.585751 786.93577c0 41.859363-27.849278 76.05007-61.868069 76.05007l-30.933523 0c-34.104749 0-61.954027-34.190707-61.954027-76.05007L255.830131 237.063207c0-41.816384 27.849278-76.049047 61.954027-76.049047L348.717681 161.01416z" p-id="14401" fill="#ffffff"></path></svg>